<svg xmlns="http://www.w3.org/2000/svg" xmlns:xlink="http://www.w3.org/1999/xlink" width="500" zoomAndPan="magnify" viewBox="0 0 375 374.999991" height="500" preserveAspectRatio="xMidYMid meet" version="1.2"><defs><filter x="0%" y="0%" width="100%" filterUnits="objectBoundingBox" id="eb405b4fdd" height="100%"><feColorMatrix values="0 0 0 0 1 0 0 0 0 1 0 0 0 0 1 0 0 0 1 0" type="matrix" in="SourceGraphic"/></filter><clipPath id="dae6861d6a"><path d="M 0.238281 0.0898438 L 374 0.0898438 L 374 366.839844 L 0.238281 366.839844 Z M 0.238281 0.0898438 "/></clipPath><clipPath id="97db5a0e25"><rect x="0" width="375" y="0" height="371"/></clipPath></defs><g id="a233664cdd"><g mask="url(#bde975751d)" transform="matrix(1,0,0,1,0,4)"><g clip-path="url(#97db5a0e25)"><g clip-rule="nonzero" clip-path="url(#dae6861d6a)"><path style=" stroke:none;fill-rule:evenodd;fill:#d9695a;fill-opacity:1;" d="M 186.914062 0.0898438 C 83.707031 0.0898438 0.273438 84.136719 0.273438 188.113281 C 0.273438 271.230469 53.730469 341.585938 127.890625 366.484375 C 137.164062 368.359375 140.558594 362.441406 140.558594 357.460938 C 140.558594 353.101562 140.253906 338.160156 140.253906 322.59375 C 88.335938 333.804688 77.523438 300.179688 77.523438 300.179688 C 69.183594 278.390625 56.820312 272.789062 56.820312 272.789062 C 39.828125 261.269531 58.058594 261.269531 58.058594 261.269531 C 76.90625 262.515625 86.796875 280.570312 86.796875 280.570312 C 103.480469 309.207031 130.363281 301.117188 141.179688 296.132812 C 142.722656 283.992188 147.671875 275.589844 152.921875 270.921875 C 111.515625 266.5625 67.949219 250.375 67.949219 178.152344 C 67.949219 157.605469 75.359375 140.796875 87.101562 127.722656 C 85.25 123.054688 78.757812 103.75 88.960938 77.914062 C 88.960938 77.914062 104.71875 72.933594 140.25 97.214844 C 155.53125 93.082031 171.082031 91.003906 186.914062 90.988281 C 202.671875 90.988281 218.734375 93.167969 233.570312 97.214844 C 269.105469 72.933594 284.863281 77.914062 284.863281 77.914062 C 295.066406 103.75 288.570312 123.054688 286.71875 127.722656 C 298.769531 140.796875 305.875 157.605469 305.875 178.152344 C 305.875 250.375 262.308594 266.25 220.59375 270.921875 C 227.390625 276.835938 233.261719 288.039062 233.261719 305.785156 C 233.261719 331 232.953125 351.234375 232.953125 357.457031 C 232.953125 362.441406 236.355469 368.359375 245.621094 366.488281 C 319.78125 341.582031 373.242188 271.230469 373.242188 188.113281 C 373.546875 84.136719 289.808594 0.0898438 186.914062 0.0898438 Z M 186.914062 0.0898438 "/></g></g><mask id="bde975751d"><g filter="url(#eb405b4fdd)"><rect x="0" width="375" y="0" height="374.999991" style="fill:#000000;fill-opacity:0.79;stroke:none;"/></g></mask></g></g></svg>